<?xml version="1.0" encoding="UTF-8"?>
<svg xmlns="http://www.w3.org/2000/svg" xmlns:xlink="http://www.w3.org/1999/xlink" width="231pt" height="275pt" viewBox="0 0 231 275" version="1.1">
<g id="surface1">
<path style=" stroke:none;fill-rule:evenodd;fill:rgb(21.960784%,20%,20.784314%);fill-opacity:1;" d="M 18.625 234.269531 C 18.730469 234.351562 18.832031 234.4375 18.9375 234.519531 C 19.113281 234.230469 19.289062 233.9375 19.464844 233.648438 C 19.398438 233.605469 19.332031 233.5625 19.265625 233.515625 C 19.054688 233.765625 18.839844 234.015625 18.625 234.269531 M 17.773438 225.386719 C 17.851562 225.296875 17.925781 225.214844 18.003906 225.125 C 17.871094 224.6875 17.835938 224.183594 17.582031 223.835938 C 17.375 223.550781 16.847656 223.25 16.566406 223.328125 C 15.699219 223.566406 14.808594 223.875 14.15625 224.765625 C 15.457031 224.96875 16.777344 224.148438 17.773438 225.386719 M 20.15625 232.308594 C 21.179688 230.566406 21.128906 230.308594 19.378906 228.160156 C 18.507812 229.078125 17.574219 229.933594 16.796875 230.917969 C 16.03125 231.882812 15.421875 232.972656 14.652344 234.152344 C 16.972656 233.96875 18.488281 232.71875 19.898438 231.382812 C 20.039062 231.484375 20.117188 231.511719 20.121094 231.546875 C 20.140625 231.773438 20.144531 232.003906 20.15625 232.308594 M 23.332031 235.117188 C 22.003906 237.296875 20.484375 239.363281 18.058594 240.917969 C 19.847656 240.660156 21.359375 240.445312 22.921875 240.21875 C 22.832031 239.769531 22.734375 239.285156 22.632812 238.800781 C 22.707031 238.714844 22.777344 238.628906 22.851562 238.546875 C 24.339844 240.484375 26.582031 240.808594 28.617188 241.738281 C 28.703125 241.371094 28.824219 241.140625 28.765625 241.074219 C 27 239.121094 25.222656 237.179688 23.332031 235.117188 M 25.183594 230.992188 C 25.710938 232.203125 26.078125 233.46875 26.777344 234.523438 C 27.433594 235.511719 27.507812 236.914062 28.910156 237.769531 C 29.554688 228.460938 29.28125 219.433594 29.351562 210.277344 C 28.210938 210.0625 27.203125 209.578125 26.367188 209.785156 C 25.3125 210.050781 24.292969 210.238281 23.210938 210.273438 C 22.691406 210.289062 22.160156 210.433594 21.660156 210.601562 C 20.425781 211.011719 19.328125 211.855469 17.910156 211.714844 C 17.640625 211.6875 17.34375 211.953125 16.941406 212.136719 C 19.035156 213.625 20.726562 214.820312 22.445312 216.039062 C 22.453125 216.234375 22.480469 216.449219 22.480469 216.664062 C 22.457031 217.824219 22.605469 218.992188 21.292969 219.738281 C 20.90625 219.960938 20.617188 220.800781 20.691406 221.300781 C 20.914062 222.820312 21.464844 224.253906 22.683594 225.785156 C 22.882812 224.90625 23.089844 224.332031 23.128906 223.75 C 23.167969 223.078125 23.058594 222.394531 23.015625 221.734375 C 24.15625 221.550781 24.34375 221.746094 25.929688 222.433594 C 27.597656 223.152344 27.738281 225.257812 26.898438 226.546875 C 26.332031 227.410156 26.074219 228.472656 25.695312 229.457031 C 25.507812 229.9375 25.367188 230.4375 25.183594 230.992188 M 3.667969 219.425781 C 2.605469 218.9375 1.648438 218.621094 0.824219 218.089844 C -0.234375 217.40625 -0.179688 216.417969 0.914062 215.820312 C 4.261719 213.988281 7.554688 212.058594 11.335938 211.167969 C 12.679688 210.851562 13.9375 210.191406 15.238281 209.695312 C 15.589844 209.5625 15.941406 209.382812 16.308594 209.335938 C 18.960938 208.96875 21.550781 208.144531 24.273438 208.234375 C 26.300781 208.296875 28.339844 208.160156 30.359375 208.304688 C 32.054688 208.425781 33.273438 209.558594 34.28125 210.835938 C 34.703125 211.375 34.949219 212.058594 35.242188 212.691406 C 35.667969 213.597656 35.753906 214.507812 35.296875 215.460938 C 34.945312 216.175781 34.765625 216.96875 34.429688 217.695312 C 33.417969 219.921875 34.195312 222.222656 34.125 224.484375 C 34.058594 226.503906 34.152344 228.53125 34.207031 230.546875 C 34.253906 232.261719 34.429688 233.976562 34.40625 235.6875 C 34.351562 239.601562 34.222656 243.511719 34.101562 247.421875 C 34.089844 247.933594 34.117188 248.488281 33.328125 248.59375 C 33.09375 248.628906 32.925781 249.160156 32.683594 249.539062 C 32.125 249.410156 31.433594 249.34375 30.820312 249.085938 C 30.195312 248.828125 29.574219 248.464844 29.082031 248.003906 C 28.351562 247.308594 27.828125 246.382812 27.046875 245.765625 C 26.453125 245.296875 25.613281 244.941406 24.867188 244.902344 C 21.945312 244.738281 19.007812 244.839844 16.097656 244.59375 C 14.789062 244.484375 13.769531 244.625 12.542969 245.1875 C 10.828125 245.972656 9 246.742188 7.015625 246.742188 C 6.496094 246.742188 5.933594 246.921875 5.609375 246.265625 C 5.292969 245.617188 5.273438 245.03125 5.734375 244.460938 C 6.226562 243.855469 6.792969 243.554688 7.636719 243.445312 C 11.476562 242.933594 14.53125 241.054688 17.007812 237.679688 C 15.5 238.164062 14.40625 238.761719 13.304688 239.433594 C 11.894531 240.28125 10.351562 240.964844 8.792969 241.507812 C 7.449219 241.96875 6.585938 241.273438 6.476562 239.859375 C 6.351562 238.246094 6.992188 236.878906 8.25 235.917969 C 9.160156 235.21875 9.886719 234.457031 10.480469 233.46875 C 11.191406 232.277344 12.132812 231.230469 12.960938 230.105469 C 13.652344 229.164062 14.320312 228.203125 14.886719 227.132812 C 13.726562 227.59375 12.613281 228.097656 12.234375 229.441406 C 11.773438 231.085938 10.636719 232.175781 9.1875 233.375 C 8.761719 232.785156 8.234375 232.347656 8.078125 231.804688 C 7.546875 229.9375 7.796875 228.207031 9.316406 226.796875 C 10.566406 225.644531 11.839844 224.503906 12.664062 223.007812 C 11.789062 222.269531 10.925781 221.640625 10.183594 220.886719 C 9.332031 220.03125 9.527344 218.710938 10.550781 218.03125 C 11.085938 217.679688 11.675781 217.414062 12.257812 217.148438 C 13.324219 216.671875 14.402344 216.214844 15.636719 215.683594 C 15.378906 214.742188 15.152344 213.890625 14.910156 213.007812 C 14.347656 213.316406 13.945312 213.640625 13.488281 213.757812 C 11.863281 214.179688 10.339844 214.757812 9.019531 215.839844 C 8.625 216.15625 8.035156 216.226562 7.550781 216.441406 C 5.433594 217.378906 5.175781 218.21875 5.324219 219.90625 C 5.519531 222.117188 5.222656 224.375 5.128906 226.609375 C 5.085938 227.625 5.027344 228.640625 4.96875 229.65625 C 4.941406 230.136719 4.882812 230.617188 4.839844 231.09375 C 4.558594 234.078125 4.183594 237.050781 4.039062 240.039062 C 3.964844 241.570312 4.316406 243.117188 4.46875 244.660156 C 4.515625 245.136719 4.585938 245.617188 4.550781 246.089844 C 4.507812 246.707031 3.976562 246.957031 3.542969 246.707031 C 1.882812 245.761719 0.09375 243.847656 0.675781 241.53125 C 1.03125 240.121094 0.78125 238.558594 0.8125 237.066406 C 0.824219 236.527344 0.800781 235.984375 0.894531 235.460938 C 1.714844 230.925781 2.570312 226.402344 3.390625 221.871094 C 3.546875 220.996094 3.597656 220.097656 3.667969 219.425781 "/>
<path style=" stroke:none;fill-rule:evenodd;fill:rgb(21.960784%,20%,20.784314%);fill-opacity:1;" d="M 213.710938 222.773438 C 213.152344 222.316406 212.878906 222.09375 212.515625 221.796875 C 212.1875 222.175781 211.917969 222.492188 211.414062 223.078125 C 212.328125 222.957031 212.847656 222.886719 213.710938 222.773438 M 208.042969 219.324219 C 207.929688 220.027344 207.824219 220.675781 207.722656 221.324219 C 207.828125 221.367188 207.9375 221.40625 208.046875 221.453125 C 208.582031 220.945312 209.117188 220.441406 209.785156 219.808594 C 209.054688 219.601562 208.601562 219.476562 208.042969 219.324219 M 207.640625 215.347656 C 208.417969 214.683594 209.214844 214.390625 209.417969 213.34375 C 208.902344 213.15625 208.429688 212.980469 207.769531 212.742188 C 207.722656 213.648438 207.6875 214.363281 207.640625 215.347656 M 212.136719 240.921875 C 210.234375 242.246094 208.226562 242.804688 206.003906 242.6875 C 205.078125 242.640625 204.660156 243.550781 205.210938 244.402344 C 206.175781 245.898438 207.445312 247.109375 209.121094 247.808594 C 209.410156 247.933594 209.839844 247.859375 210.15625 247.746094 C 212.414062 246.914062 213.460938 243.554688 212.136719 240.921875 M 215.609375 214.640625 C 215.511719 213.664062 215.988281 213.050781 216.859375 212.699219 C 217.671875 212.371094 217.824219 212.421875 218.648438 213.257812 C 219.527344 212.492188 219.953125 211.441406 220.070312 210.386719 C 220.121094 209.941406 219.445312 209.3125 218.964844 208.9375 C 218.277344 208.398438 218.230469 207.839844 218.539062 207.046875 C 220.289062 206.84375 221.882812 207.246094 223.210938 208.324219 C 224.425781 209.3125 225.132812 210.632812 224.953125 212.398438 C 222.984375 212.640625 222.621094 214.117188 222.328125 215.71875 C 222.019531 217.445312 221.582031 219.148438 221.222656 220.867188 C 221.101562 221.433594 221.046875 222.011719 220.945312 222.714844 C 221.828125 222.789062 222.566406 222.855469 223.300781 222.921875 C 225.308594 223.105469 227.210938 223.640625 228.929688 224.703125 C 229.59375 225.113281 230.15625 225.679688 230.75 226.164062 C 230.027344 227.8125 228.851562 228.101562 227.394531 228.019531 C 225.183594 227.90625 222.957031 227.6875 220.824219 228.683594 C 219.925781 229.105469 218.890625 229.273438 217.902344 229.472656 C 217.058594 229.644531 216.574219 229.996094 216.351562 230.902344 C 216.222656 231.429688 215.691406 231.964844 215.199219 232.277344 C 213.875 233.125 214.035156 234.257812 214.429688 235.453125 C 214.613281 236.003906 214.910156 236.515625 215.164062 237.078125 C 215.746094 237.046875 216.300781 237.105469 216.808594 236.976562 C 219.273438 236.351562 220.773438 237.902344 222.226562 239.40625 C 222.988281 240.199219 222.554688 241.148438 221.4375 241.34375 C 220.949219 241.429688 220.425781 241.273438 219.917969 241.265625 C 218.742188 241.246094 217.566406 241.257812 216.15625 241.257812 C 216.15625 242.976562 216.234375 244.566406 216.140625 246.148438 C 215.960938 249.253906 213.113281 252.222656 209.199219 250.667969 C 208.550781 250.410156 207.878906 250.210938 207.25 249.90625 C 205.917969 249.273438 205.109375 248.289062 204.78125 246.769531 C 204.488281 245.40625 203.921875 244.074219 203.316406 242.808594 C 202.839844 241.824219 202.863281 240.984375 203.5 239.992188 C 205.660156 240.378906 207.445312 239.273438 209.308594 238.300781 C 210.074219 237.902344 211.054688 237.9375 211.917969 237.707031 C 212.148438 237.644531 212.3125 237.332031 212.691406 236.949219 C 211.667969 236.785156 210.894531 236.664062 210.078125 236.53125 C 209.695312 235.589844 209.992188 234.6875 210.386719 233.792969 C 210.726562 233.019531 211.082031 232.253906 211.203125 231.328125 C 211.03125 231.417969 210.792969 231.464844 210.703125 231.609375 C 209.839844 232.949219 208.429688 232.949219 207.109375 232.976562 C 206.058594 233 205.730469 232.25 206.273438 231.320312 C 206.757812 230.488281 207.296875 229.769531 208.363281 229.503906 C 209.335938 229.261719 210.277344 228.816406 211.171875 228.355469 C 212.886719 227.46875 214.574219 227.539062 216.132812 228.226562 C 217.523438 227.828125 218.808594 227.503906 220.0625 227.082031 C 221.21875 226.695312 222.589844 227 223.898438 225.839844 C 222.664062 225.683594 221.742188 225.574219 220.820312 225.449219 C 220.1875 225.367188 219.550781 225.269531 218.917969 225.175781 C 218.550781 225.117188 218.148438 224.921875 217.824219 225.015625 C 216.636719 225.347656 215.425781 225.246094 214.238281 225.367188 C 212.5 225.550781 210.789062 226.085938 209.09375 226.566406 C 207.550781 227.003906 206.050781 227.574219 204.527344 228.082031 C 204.375 228.136719 204.175781 228.128906 204.070312 228.222656 C 201.914062 230.164062 199.980469 228.523438 197.789062 227.902344 C 196.679688 228.824219 195.566406 229.878906 195.613281 231.730469 C 195.644531 232.839844 194.574219 233.371094 193.933594 234.082031 C 193.648438 234.402344 192.925781 234.285156 192.59375 233.648438 C 192.078125 232.644531 191.90625 231.570312 192.21875 230.519531 C 192.582031 229.308594 193.140625 228.15625 193.628906 226.984375 C 193.753906 226.6875 193.941406 226.417969 194.179688 225.992188 C 194.898438 226.695312 195.335938 227.125 195.925781 227.699219 C 196.207031 227.464844 196.765625 227.222656 196.960938 226.808594 C 197.472656 225.6875 198.308594 225.367188 199.441406 225.480469 C 199.585938 225.496094 199.742188 225.410156 199.878906 225.375 C 199.914062 223.980469 199.949219 222.632812 199.988281 221.277344 C 200.03125 219.78125 200.140625 218.289062 200.113281 216.796875 C 200.089844 215.421875 200.097656 214.050781 199.035156 212.886719 C 198.644531 212.460938 198.71875 211.613281 198.582031 210.972656 C 200.402344 210.53125 201.265625 210.886719 201.960938 212.230469 C 202.082031 212.464844 202.238281 212.699219 202.300781 212.953125 C 202.988281 215.6875 203.53125 218.425781 203.132812 221.289062 C 202.996094 222.273438 202.847656 223.367188 203.726562 224.363281 C 203.941406 223.355469 204.273438 222.355469 204.347656 221.339844 C 204.480469 219.539062 204.445312 217.734375 204.507812 215.929688 C 204.578125 213.96875 204.734375 212.007812 204.734375 210.046875 C 204.734375 209.371094 204.371094 208.699219 204.050781 208.046875 C 204.09375 207.324219 204.5625 207.109375 205.332031 207.105469 C 206.167969 207.101562 206.832031 207.324219 207.261719 208.019531 C 207.570312 208.515625 207.804688 209.066406 208.007812 209.609375 C 208.191406 210.101562 208.292969 210.628906 208.445312 211.179688 C 209.097656 211.296875 209.777344 211.417969 210.550781 211.558594 C 211.515625 210.640625 212.578125 209.742188 212.972656 208.324219 C 213.1875 207.550781 213.660156 207.273438 214.433594 207.496094 C 214.792969 207.601562 215.160156 207.679688 215.515625 207.773438 C 216.945312 210.308594 216.945312 210.308594 214.996094 212.347656 C 213.972656 213.414062 214.128906 213.972656 215.625 214.613281 C 215.609375 214.9375 215.511719 215.28125 215.597656 215.570312 C 215.863281 216.445312 215.628906 217.105469 214.949219 217.691406 C 214.628906 217.957031 214.398438 218.328125 214.140625 218.640625 C 214.035156 220.242188 215.296875 220.605469 216.351562 221.148438 C 217.765625 220.078125 217.832031 219.660156 216.578125 218.769531 C 215.890625 218.277344 215.746094 217.726562 215.964844 217.074219 C 216.1875 215.785156 218.113281 217.191406 218.199219 215.535156 C 217.273438 215.332031 216.15625 215.746094 215.613281 214.640625 "/>
<path style=" stroke:none;fill-rule:evenodd;fill:rgb(21.960784%,20%,20.784314%);fill-opacity:1;" d="M 99.082031 237.039062 C 101.9375 236.925781 103.09375 235.699219 101.886719 234.046875 C 101.414062 234.273438 100.953125 234.566406 100.453125 234.726562 C 99.351562 235.082031 98.996094 235.847656 99.082031 237.039062 M 103.488281 221.65625 C 103.4375 221.566406 103.382812 221.46875 103.332031 221.378906 C 102.65625 221.5 101.96875 221.585938 101.304688 221.753906 C 98.878906 222.375 96.476562 223.082031 94.035156 223.640625 C 93.183594 223.839844 92.878906 224.164062 92.984375 225.027344 C 94.207031 224.410156 94.21875 224.371094 95.308594 224.734375 C 95.957031 224.949219 96.507812 224.949219 97.128906 224.644531 C 99.238281 223.625 101.367188 222.648438 103.488281 221.65625 M 92.984375 226.125 C 92.832031 226.1875 92.585938 226.214844 92.472656 226.351562 C 91.644531 227.328125 90.738281 228.261719 90.066406 229.335938 C 89.421875 230.371094 88.949219 231.535156 88.535156 232.6875 C 87.871094 234.5625 87.078125 236.355469 85.816406 237.914062 C 85.546875 238.242188 85.355469 238.648438 85.210938 239.050781 C 84.746094 240.386719 84.105469 241.589844 83.015625 242.550781 C 82.683594 242.847656 82.582031 243.390625 82.316406 243.78125 C 81.871094 244.433594 81.386719 245.054688 80.914062 245.679688 C 80.6875 245.980469 80.457031 246.277344 80.214844 246.5625 C 79.558594 247.332031 78.902344 248.101562 78.226562 248.855469 C 77.699219 249.453125 77.160156 250.042969 76.59375 250.601562 C 76.390625 250.800781 76.097656 250.917969 75.496094 251.285156 C 75.667969 250.550781 75.675781 250.136719 75.851562 249.8125 C 76.785156 248.128906 77.757812 246.464844 78.726562 244.796875 C 80.496094 241.75 82.304688 238.71875 84.039062 235.644531 C 85.300781 233.410156 86.734375 231.214844 87.589844 228.824219 C 88.382812 226.597656 89.320312 224.445312 90.234375 222.28125 C 90.382812 221.933594 90.570312 221.605469 90.6875 221.246094 C 90.957031 220.449219 91.191406 219.636719 91.5 218.628906 C 91.605469 218.566406 91.929688 218.386719 92.230469 218.222656 C 93.6875 219.023438 94.898438 218.960938 96.089844 217.941406 C 96.984375 217.1875 97.792969 216.332031 98.621094 215.351562 C 96.027344 215.351562 93.792969 214.679688 91.847656 212.566406 C 92.660156 212.261719 93.273438 212.015625 93.894531 211.808594 C 94.246094 211.695312 94.648438 211.703125 94.984375 211.558594 C 97.066406 210.695312 99.1875 209.90625 101.191406 208.886719 C 102.363281 208.285156 103.472656 207.734375 104.816406 207.726562 C 106.273438 207.722656 108.394531 209.164062 108.71875 210.550781 C 108.832031 211.023438 108.714844 211.621094 108.515625 212.078125 C 108.175781 212.847656 107.707031 213.566406 107.25 214.273438 C 107.015625 214.632812 106.726562 215.128906 106.386719 215.203125 C 105.195312 215.457031 104.914062 216.472656 104.347656 217.335938 C 104.890625 217.753906 105.476562 218.128906 105.96875 218.601562 C 106.296875 218.921875 106.488281 219.382812 106.746094 219.789062 C 106.277344 220.125 105.851562 220.421875 105.511719 220.664062 C 106.71875 221.085938 107.988281 221.351562 109.066406 221.953125 C 110.535156 222.761719 110.628906 224.078125 109.375 225.222656 C 108.636719 225.90625 107.726562 226.402344 106.878906 226.964844 C 106.363281 227.3125 105.832031 227.628906 105.203125 228.023438 C 106.167969 228.335938 106.90625 228.550781 107.632812 228.816406 C 109.171875 229.378906 109.167969 229.394531 109.84375 230.835938 C 109.5625 231.261719 109.269531 231.707031 108.96875 232.164062 C 107.988281 232.222656 106.996094 232.285156 105.808594 232.355469 C 106.25 233.390625 106.59375 234.195312 107 235.144531 C 109.425781 234.871094 112 234.089844 114.257812 236.34375 C 113.828125 237.027344 113.390625 237.71875 113.082031 238.203125 C 111.195312 238.203125 109.542969 238.121094 107.898438 238.230469 C 106.582031 238.324219 106.367188 238.757812 106.433594 239.980469 C 106.539062 241.902344 106.515625 243.832031 106.644531 245.753906 C 106.789062 247.828125 105.816406 249.710938 105.703125 251.734375 C 105.648438 252.730469 105.601562 253.722656 105.53125 254.945312 C 105.070312 254.945312 104.546875 254.960938 104.03125 254.945312 C 103.53125 254.925781 103.238281 254.675781 103.183594 254.15625 C 102.980469 252.25 102.429688 250.421875 102.617188 248.425781 C 102.90625 245.351562 102.894531 242.238281 102.414062 239.042969 C 101.335938 239.542969 100.378906 240.003906 99.410156 240.4375 C 98.679688 240.765625 98.40625 241.4375 98.285156 242.105469 C 97.941406 244.035156 97.324219 245.929688 97.589844 247.949219 C 97.722656 248.921875 97.144531 249.605469 96.382812 249.675781 C 95.144531 249.792969 94.453125 249.390625 94.253906 248.28125 C 93.984375 246.808594 93.816406 245.320312 93.597656 243.765625 C 92.664062 243.902344 91.804688 244.191406 90.996094 244.796875 C 90.371094 245.25 89.582031 245.566406 88.820312 245.734375 C 87.511719 246.027344 86.914062 245.542969 86.699219 244.234375 C 86.460938 242.820312 87.359375 241.515625 88.804688 241.167969 C 89.066406 241.105469 89.367188 241.085938 89.570312 240.9375 C 91.078125 239.832031 92.570312 238.703125 94.058594 237.570312 C 94.582031 237.171875 94.980469 236.691406 94.792969 235.832031 C 93.808594 236.0625 92.746094 236.429688 92.121094 235.144531 C 92.226562 233.777344 92.925781 233.019531 94.355469 232.515625 C 95.5625 232.085938 96.578125 231.070312 97.621094 230.246094 C 100.15625 228.257812 102.664062 226.242188 105.167969 224.21875 C 105.53125 223.925781 105.800781 223.515625 106.125 223.15625 C 104.546875 222.117188 103.519531 222.222656 102.042969 223.4375 C 101.261719 224.089844 100.386719 224.628906 99.636719 225.3125 C 98.515625 226.339844 97.199219 227.191406 96.707031 228.789062 C 96.476562 229.539062 95.523438 230 94.917969 229.875 C 93.960938 229.675781 93.136719 228.769531 93.136719 227.894531 C 93.132812 227.359375 93.15625 226.828125 93.15625 226.292969 C 93.15625 226.253906 93.082031 226.21875 92.984375 226.125 "/>
<path style=" stroke:none;fill-rule:evenodd;fill:rgb(21.960784%,20%,20.784314%);fill-opacity:1;" d="M 136.320312 231.992188 C 139.507812 229.914062 141.222656 226.859375 143.019531 223.539062 C 141.164062 223.175781 139.589844 222.121094 137.992188 223.605469 C 137.851562 223.730469 137.5625 223.8125 137.386719 223.761719 C 136.148438 223.410156 136.058594 224.207031 136 225.074219 C 135.96875 225.492188 135.910156 225.90625 135.882812 226.125 C 136.601562 226.789062 137.175781 227.316406 137.785156 227.882812 C 137.046875 229.1875 135.40625 229.996094 136.320312 231.992188 M 135.164062 243.414062 C 135.34375 245.351562 135.472656 246.984375 135.644531 248.621094 C 135.804688 250.109375 136.132812 251.59375 136.164062 253.085938 C 136.203125 254.738281 135.527344 255.261719 133.929688 254.898438 C 131.75 254.402344 129.585938 253.808594 127.453125 253.144531 C 126.996094 253 126.222656 252.757812 126.519531 251.785156 C 126.632812 251.421875 126.132812 250.871094 125.863281 250.304688 C 126.445312 250.1875 126.925781 250.089844 127.511719 249.96875 C 128.089844 250.871094 128.9375 251.214844 130.078125 250.859375 C 131.355469 250.460938 131.871094 249.882812 131.898438 248.550781 C 131.925781 247.097656 131.871094 245.644531 131.933594 244.195312 C 131.988281 242.890625 131.40625 242.066406 130.320312 241.578125 C 128.503906 242.113281 127.664062 243.679688 126.417969 244.769531 C 124.875 246.117188 123.472656 247.65625 121.640625 248.648438 C 120.542969 249.246094 120.585938 249.128906 120.1875 247.847656 C 119.789062 246.566406 120.332031 245.878906 121.1875 245.125 C 123.59375 243 125.945312 240.820312 128.324219 238.671875 C 128.917969 238.132812 129.542969 237.625 130.214844 237.054688 C 129.4375 235.792969 129.378906 234.640625 130.554688 233.5 C 131.132812 232.941406 131.402344 232.070312 131.820312 231.328125 C 130.867188 231.328125 130.015625 231.507812 129.292969 231.289062 C 128.105469 230.925781 127.882812 230.128906 128.71875 229.210938 C 129.421875 228.433594 130.320312 227.796875 131.21875 227.234375 C 131.84375 226.84375 132.210938 226.449219 132.085938 225.597656 C 131.042969 225.347656 130.304688 226.078125 129.535156 226.5625 C 128.710938 227.082031 127.863281 227.316406 126.925781 227.152344 C 126.640625 227.101562 126.386719 226.863281 126.140625 226.726562 C 126.132812 225.78125 126.613281 225.234375 127.347656 224.902344 C 128.621094 224.335938 129.902344 223.785156 131.199219 223.273438 C 132.269531 222.847656 132.679688 222.300781 132.742188 221.121094 C 132.792969 220.183594 132.121094 219.863281 131.460938 219.472656 C 130.457031 218.878906 129.453125 218.269531 128.53125 217.554688 C 128.21875 217.3125 127.945312 216.6875 128.042969 216.339844 C 128.132812 216 128.683594 215.65625 129.09375 215.554688 C 129.816406 215.378906 130.585938 215.40625 131.332031 215.3125 C 133.382812 215.042969 133.605469 214.777344 133.492188 212.761719 C 133.480469 212.546875 133.417969 212.335938 133.417969 212.121094 C 133.410156 211.441406 133.265625 210.878906 132.542969 210.558594 C 131.898438 210.273438 131.714844 209.621094 132.003906 209.070312 C 132.175781 208.742188 132.742188 208.484375 133.164062 208.445312 C 135.105469 208.246094 137.542969 210.03125 137.964844 211.902344 C 138.023438 212.152344 138.050781 212.425781 138.011719 212.679688 C 137.820312 213.9375 137.8125 213.933594 138.949219 214.230469 C 139.261719 214.308594 139.585938 214.386719 139.871094 214.53125 C 140.675781 214.9375 141.585938 215.40625 141.527344 216.429688 C 141.460938 217.574219 141.191406 218.792969 139.742188 219.011719 C 138.542969 219.195312 137.71875 219.910156 136.960938 220.738281 C 136.726562 220.996094 136.605469 221.359375 136.308594 221.910156 C 136.9375 221.910156 137.335938 221.917969 137.738281 221.90625 C 139.339844 221.859375 140.941406 221.808594 142.542969 221.753906 C 142.800781 221.746094 143.0625 221.746094 143.316406 221.703125 C 144.949219 221.433594 146.800781 222.355469 147.480469 223.785156 C 147.898438 224.660156 147.707031 225.058594 147.042969 225.859375 C 146.40625 226.632812 145.964844 227.566406 145.453125 228.4375 C 145.265625 228.761719 145.183594 229.164062 144.945312 229.4375 C 143.972656 230.558594 142.929688 231.613281 141.964844 232.75 C 141.046875 233.832031 139.824219 234.097656 138.507812 234.15625 C 136.902344 234.226562 136.257812 234.820312 136.136719 236.351562 C 136.074219 237.152344 135.976562 237.949219 135.867188 238.746094 C 135.691406 240.078125 135.96875 240.324219 137.261719 240.738281 C 140.867188 241.898438 144.613281 242.148438 148.316406 242.703125 C 150.492188 243.035156 152.617188 243.738281 153.789062 245.9375 C 154.277344 246.847656 154.46875 247.742188 154.097656 248.710938 C 153.792969 249.503906 153.09375 249.90625 152.230469 249.921875 C 150.402344 249.953125 148.746094 249.398438 147.125 248.609375 C 145.925781 248.023438 144.65625 247.578125 143.433594 247.035156 C 141.226562 246.058594 139.03125 245.054688 136.828125 244.070312 C 136.398438 243.875 135.949219 243.722656 135.164062 243.414062 "/>
<path style=" stroke:none;fill-rule:evenodd;fill:rgb(21.960784%,20%,20.784314%);fill-opacity:1;" d="M 160.941406 246.191406 C 161.261719 243.902344 162.324219 242.109375 164.132812 240.570312 C 166.0625 238.914062 167.917969 237.101562 168.804688 234.527344 C 167.234375 233.4375 165.671875 232.359375 164.128906 231.265625 C 163.832031 231.058594 163.546875 230.800781 163.34375 230.511719 C 162.71875 229.621094 162.972656 228.871094 164 228.554688 C 164.667969 228.351562 165.359375 228.210938 166.035156 228.039062 C 166.503906 227.914062 166.984375 227.816406 167.4375 227.640625 C 170.253906 226.546875 170.621094 226.078125 170.808594 223.066406 C 170.898438 221.585938 170.917969 220.09375 170.84375 218.609375 C 170.816406 217.949219 170.621094 217.207031 170.25 216.679688 C 169.589844 215.738281 169.660156 214.660156 169.359375 213.667969 C 168.9375 212.292969 170.035156 211.769531 170.429688 210.84375 C 171.710938 211.15625 172.945312 211.460938 174.183594 211.757812 C 176.035156 212.203125 176.53125 213.964844 177.542969 215.226562 C 177.636719 215.34375 177.546875 215.625 177.507812 215.824219 C 177.464844 216.074219 177.25 216.382812 177.332031 216.550781 C 178.199219 218.269531 177.359375 219.851562 176.949219 221.328125 C 178.167969 221.785156 179.320312 222.132812 180.398438 222.644531 C 181.019531 222.941406 181.539062 223.472656 182.054688 223.945312 C 182.507812 224.367188 183.398438 224.464844 183.21875 225.394531 C 183.417969 225.410156 183.613281 225.421875 183.8125 225.433594 C 183.734375 226.261719 182.832031 226.976562 183.574219 227.84375 C 183.472656 227.914062 183.363281 227.976562 183.265625 228.054688 C 183.109375 228.175781 182.824219 228.332031 182.839844 228.433594 C 183.070312 229.9375 182.226562 230.210938 180.96875 230.300781 C 180.460938 230.335938 180.003906 230.929688 179.5 231.242188 C 178.644531 231.769531 177.78125 232.285156 176.90625 232.785156 C 176.03125 233.28125 175.582031 234.035156 175.21875 234.972656 C 174.492188 236.859375 173.609375 238.683594 172.738281 240.660156 C 173.511719 240.882812 174.253906 241.222656 175.023438 241.289062 C 177.414062 241.496094 179.824219 241.507812 182.210938 241.765625 C 184.019531 241.960938 185.757812 242.578125 187.34375 243.507812 C 188.632812 244.257812 189.214844 245.570312 189.710938 246.847656 C 190.214844 248.148438 189.371094 249.058594 187.949219 249.175781 C 185.882812 249.347656 184.1875 248.390625 182.472656 247.507812 C 180.644531 246.5625 178.878906 245.484375 177.054688 244.523438 C 176.503906 244.234375 175.859375 244.109375 175.242188 243.960938 C 174.773438 243.84375 174.167969 243.964844 173.835938 243.707031 C 172.503906 242.6875 171.539062 243.535156 170.515625 244.207031 C 169.398438 244.9375 168.324219 245.742188 167.15625 246.382812 C 165.171875 247.46875 163.128906 247.6875 160.941406 246.191406 "/>
<path style=" stroke:none;fill-rule:evenodd;fill:rgb(21.960784%,20%,20.784314%);fill-opacity:1;" d="M 55.839844 237.734375 C 59.011719 235.777344 59.457031 235.347656 60.109375 233.664062 C 57.980469 233.714844 56.511719 235.054688 55.839844 237.734375 M 58.402344 220.660156 C 58.234375 220.550781 58.078125 220.375 57.894531 220.335938 C 56.933594 220.121094 56.578125 219.449219 56.578125 218.566406 C 56.578125 217.570312 56.222656 216.828125 55.371094 216.269531 C 55.035156 216.046875 54.828125 215.621094 54.578125 215.277344 C 53.84375 214.25 54.128906 213.480469 55.296875 212.972656 C 56.828125 212.300781 58.214844 213.015625 59.640625 213.3125 C 60.195312 213.425781 60.726562 213.714844 61.242188 213.972656 C 63.40625 215.054688 64.035156 216.441406 63.523438 218.980469 C 63.472656 219.246094 63.378906 219.5 63.277344 219.75 C 63.007812 220.433594 63.265625 220.988281 63.878906 221.207031 C 65.441406 221.757812 66.105469 223.089844 66.957031 224.398438 C 66.019531 225.0625 65.253906 225.828125 64.011719 225.867188 C 63.277344 225.894531 62.671875 226.351562 62.238281 227.074219 C 61.4375 228.394531 60.394531 229.578125 60.191406 230.992188 C 61.410156 231.332031 62.582031 231.613281 63.722656 231.992188 C 65.148438 232.460938 65.214844 233.957031 65.824219 235.019531 C 65.976562 235.28125 65.714844 235.847656 65.527344 236.210938 C 65.152344 236.941406 64.699219 237.625 64.339844 238.230469 C 65.480469 238.941406 66.652344 239.414062 67.453125 240.242188 C 68.324219 241.148438 67.808594 242.484375 67.902344 243.660156 C 66.632812 244.429688 65.246094 244.421875 63.976562 244.136719 C 61.058594 243.480469 58.207031 243.808594 55.433594 244.609375 C 54.195312 244.964844 52.890625 245.296875 51.773438 246.164062 C 49.996094 247.550781 47.992188 247.402344 46.046875 246.394531 C 45.121094 245.914062 44.710938 244.660156 45.320312 243.753906 C 45.808594 243.027344 46.402344 242.339844 47.421875 242.140625 C 48.398438 241.953125 49.335938 241.539062 50.441406 241.175781 C 50.066406 240.023438 49.777344 239.03125 49.425781 238.054688 C 48.71875 236.089844 49.046875 234.402344 50.617188 232.960938 C 51.667969 232 52.664062 230.96875 53.871094 229.789062 C 52.722656 229.4375 52.054688 228.824219 51.03125 228.726562 C 49.488281 228.566406 48.007812 226.726562 47.832031 225.152344 C 47.75 224.375 47.917969 223.761719 48.769531 223.527344 C 49.082031 223.441406 49.382812 223.285156 49.695312 223.265625 C 52.738281 223.035156 55.386719 221.429688 58.378906 221.039062 C 58.386719 220.914062 58.394531 220.785156 58.402344 220.660156 "/>
<path style=" stroke:none;fill-rule:evenodd;fill:rgb(21.960784%,20%,20.784314%);fill-opacity:1;" d="M 126.554688 231.121094 C 126.6875 230.277344 126.765625 229.769531 126.84375 229.261719 C 126.925781 229.246094 127 229.234375 127.078125 229.21875 C 127.179688 229.46875 127.296875 229.714844 127.378906 229.96875 C 127.800781 231.226562 128.1875 232.496094 128.636719 233.746094 C 128.816406 234.257812 129.132812 234.765625 128.59375 235.207031 C 128.0625 235.644531 127.390625 235.554688 126.957031 235.136719 C 126.316406 234.519531 125.769531 233.78125 125.277344 233.03125 C 124.816406 232.324219 124.558594 231.480469 124.070312 230.800781 C 122.941406 229.226562 122.558594 227.394531 122.089844 225.59375 C 122.046875 225.441406 122.074219 225.273438 122.070312 225.113281 C 122.066406 224.503906 122.480469 224.179688 122.972656 224.183594 C 123.324219 224.1875 123.820312 224.449219 123.980469 224.742188 C 124.304688 225.34375 124.578125 226.027344 124.640625 226.703125 C 124.78125 228.269531 125.628906 229.492188 126.558594 231.121094 "/>
<path style=" stroke:none;fill-rule:nonzero;fill:rgb(21.960784%,20%,20.784314%);fill-opacity:1;" d="M 0 271.75 L 0 259.789062 L 2.355469 259.789062 L 7.257812 267.78125 L 7.257812 259.789062 L 9.503906 259.789062 L 9.503906 271.75 L 7.082031 271.75 L 2.246094 263.953125 L 2.246094 271.75 Z M 0 271.75 "/>
<path style=" stroke:none;fill-rule:nonzero;fill:rgb(21.960784%,20%,20.784314%);fill-opacity:1;" d="M 13.855469 265.726562 L 11.773438 265.355469 C 12.007812 264.515625 12.40625 263.898438 12.972656 263.496094 C 13.546875 263.09375 14.402344 262.886719 15.535156 262.886719 C 16.558594 262.886719 17.320312 263.011719 17.824219 263.257812 C 18.324219 263.496094 18.675781 263.808594 18.878906 264.183594 C 19.082031 264.550781 19.1875 265.234375 19.1875 266.226562 L 19.164062 268.902344 C 19.164062 269.660156 19.199219 270.222656 19.273438 270.585938 C 19.34375 270.949219 19.484375 271.335938 19.6875 271.75 L 17.410156 271.75 C 17.347656 271.597656 17.277344 271.375 17.191406 271.074219 C 17.152344 270.9375 17.125 270.847656 17.105469 270.804688 C 16.710938 271.179688 16.289062 271.464844 15.839844 271.664062 C 15.394531 271.851562 14.925781 271.945312 14.421875 271.945312 C 13.53125 271.945312 12.824219 271.703125 12.308594 271.214844 C 11.792969 270.734375 11.535156 270.117188 11.535156 269.378906 C 11.535156 268.894531 11.648438 268.460938 11.882812 268.074219 C 12.117188 267.691406 12.441406 267.398438 12.863281 267.195312 C 13.292969 266.992188 13.902344 266.8125 14.695312 266.660156 C 15.769531 266.460938 16.515625 266.269531 16.929688 266.09375 L 16.929688 265.867188 C 16.929688 265.425781 16.820312 265.113281 16.601562 264.933594 C 16.386719 264.746094 15.972656 264.648438 15.371094 264.648438 C 14.957031 264.648438 14.632812 264.730469 14.402344 264.890625 C 14.175781 265.050781 13.992188 265.328125 13.855469 265.726562 Z M 16.929688 267.585938 C 16.628906 267.6875 16.160156 267.808594 15.523438 267.945312 C 14.890625 268.074219 14.476562 268.203125 14.28125 268.335938 C 13.980469 268.554688 13.835938 268.824219 13.835938 269.152344 C 13.835938 269.472656 13.953125 269.746094 14.195312 269.976562 C 14.433594 270.210938 14.738281 270.324219 15.109375 270.324219 C 15.523438 270.324219 15.917969 270.191406 16.285156 269.921875 C 16.570312 269.714844 16.753906 269.460938 16.84375 269.160156 C 16.898438 268.964844 16.929688 268.59375 16.929688 268.042969 Z M 16.929688 267.585938 "/>
<path style=" stroke:none;fill-rule:nonzero;fill:rgb(21.960784%,20%,20.784314%);fill-opacity:1;" d="M 25.5 263.082031 L 25.5 264.910156 L 23.933594 264.910156 L 23.933594 268.402344 C 23.933594 269.113281 23.945312 269.527344 23.976562 269.640625 C 24.003906 269.757812 24.070312 269.855469 24.171875 269.933594 C 24.28125 270.007812 24.410156 270.042969 24.5625 270.042969 C 24.773438 270.042969 25.082031 269.972656 25.492188 269.824219 L 25.6875 271.597656 C 25.148438 271.828125 24.542969 271.945312 23.867188 271.945312 C 23.453125 271.945312 23.078125 271.875 22.746094 271.738281 C 22.417969 271.601562 22.171875 271.421875 22.015625 271.207031 C 21.863281 270.984375 21.753906 270.679688 21.699219 270.304688 C 21.644531 270.035156 21.621094 269.5 21.621094 268.695312 L 21.621094 264.910156 L 20.566406 264.910156 L 20.566406 263.082031 L 21.621094 263.082031 L 21.621094 261.367188 L 23.933594 260.027344 L 23.933594 263.082031 Z M 25.5 263.082031 "/>
<path style=" stroke:none;fill-rule:nonzero;fill:rgb(21.960784%,20%,20.784314%);fill-opacity:1;" d="M 27.128906 261.910156 L 27.128906 259.789062 L 29.429688 259.789062 L 29.429688 261.910156 Z M 27.128906 271.75 L 27.128906 263.082031 L 29.429688 263.082031 L 29.429688 271.75 Z M 27.128906 271.75 "/>
<path style=" stroke:none;fill-rule:nonzero;fill:rgb(21.960784%,20%,20.784314%);fill-opacity:1;" d="M 31.296875 267.292969 C 31.296875 266.53125 31.480469 265.796875 31.851562 265.085938 C 32.226562 264.375 32.761719 263.832031 33.453125 263.453125 C 34.144531 263.078125 34.914062 262.886719 35.765625 262.886719 C 37.078125 262.886719 38.152344 263.316406 38.988281 264.171875 C 39.832031 265.019531 40.253906 266.09375 40.253906 267.390625 C 40.253906 268.703125 39.828125 269.789062 38.980469 270.652344 C 38.128906 271.515625 37.0625 271.945312 35.773438 271.945312 C 34.980469 271.945312 34.222656 271.765625 33.496094 271.414062 C 32.777344 271.050781 32.226562 270.527344 31.851562 269.835938 C 31.480469 269.140625 31.296875 268.292969 31.296875 267.292969 Z M 33.648438 267.421875 C 33.648438 268.277344 33.851562 268.933594 34.261719 269.390625 C 34.664062 269.847656 35.171875 270.074219 35.773438 270.074219 C 36.367188 270.074219 36.871094 269.847656 37.277344 269.390625 C 37.683594 268.933594 37.890625 268.269531 37.890625 267.398438 C 37.890625 266.550781 37.683594 265.898438 37.277344 265.441406 C 36.871094 264.988281 36.367188 264.757812 35.773438 264.757812 C 35.171875 264.757812 34.664062 264.988281 34.261719 265.441406 C 33.851562 265.898438 33.648438 266.558594 33.648438 267.421875 Z M 33.648438 267.421875 "/>
<path style=" stroke:none;fill-rule:nonzero;fill:rgb(21.960784%,20%,20.784314%);fill-opacity:1;" d="M 50.027344 271.75 L 47.726562 271.75 L 47.726562 267.324219 C 47.726562 266.390625 47.675781 265.789062 47.574219 265.519531 C 47.476562 265.246094 47.316406 265.03125 47.09375 264.878906 C 46.875 264.726562 46.613281 264.648438 46.308594 264.648438 C 45.910156 264.648438 45.550781 264.757812 45.230469 264.976562 C 44.917969 265.191406 44.703125 265.484375 44.585938 265.84375 C 44.46875 266.203125 44.414062 266.863281 44.414062 267.824219 L 44.414062 271.75 L 42.113281 271.75 L 42.113281 263.082031 L 44.25 263.082031 L 44.25 264.355469 C 45.003906 263.378906 45.957031 262.886719 47.105469 262.886719 C 47.613281 262.886719 48.074219 262.984375 48.488281 263.171875 C 48.910156 263.351562 49.230469 263.585938 49.449219 263.867188 C 49.667969 264.148438 49.8125 264.472656 49.894531 264.835938 C 49.980469 265.191406 50.027344 265.703125 50.027344 266.367188 Z M 50.027344 271.75 "/>
<path style=" stroke:none;fill-rule:nonzero;fill:rgb(21.960784%,20%,20.784314%);fill-opacity:1;" d="M 54.152344 265.726562 L 52.070312 265.355469 C 52.304688 264.515625 52.703125 263.898438 53.269531 263.496094 C 53.84375 263.09375 54.699219 262.886719 55.832031 262.886719 C 56.855469 262.886719 57.617188 263.011719 58.121094 263.257812 C 58.621094 263.496094 58.972656 263.808594 59.175781 264.183594 C 59.378906 264.550781 59.480469 265.234375 59.480469 266.226562 L 59.460938 268.902344 C 59.460938 269.660156 59.496094 270.222656 59.570312 270.585938 C 59.640625 270.949219 59.777344 271.335938 59.984375 271.75 L 57.707031 271.75 C 57.644531 271.597656 57.574219 271.375 57.488281 271.074219 C 57.449219 270.9375 57.421875 270.847656 57.398438 270.804688 C 57.007812 271.179688 56.585938 271.464844 56.136719 271.664062 C 55.691406 271.851562 55.222656 271.945312 54.71875 271.945312 C 53.824219 271.945312 53.121094 271.703125 52.605469 271.214844 C 52.085938 270.734375 51.832031 270.117188 51.832031 269.378906 C 51.832031 268.894531 51.945312 268.460938 52.179688 268.074219 C 52.410156 267.691406 52.738281 267.398438 53.160156 267.195312 C 53.589844 266.992188 54.199219 266.8125 54.992188 266.660156 C 56.066406 266.460938 56.8125 266.269531 57.226562 266.09375 L 57.226562 265.867188 C 57.226562 265.425781 57.117188 265.113281 56.898438 264.933594 C 56.679688 264.746094 56.269531 264.648438 55.667969 264.648438 C 55.253906 264.648438 54.929688 264.730469 54.699219 264.890625 C 54.472656 265.050781 54.289062 265.328125 54.152344 265.726562 Z M 57.226562 267.585938 C 56.925781 267.6875 56.457031 267.808594 55.820312 267.945312 C 55.1875 268.074219 54.773438 268.203125 54.578125 268.335938 C 54.277344 268.554688 54.132812 268.824219 54.132812 269.152344 C 54.132812 269.472656 54.25 269.746094 54.492188 269.976562 C 54.730469 270.210938 55.035156 270.324219 55.40625 270.324219 C 55.820312 270.324219 56.210938 270.191406 56.582031 269.921875 C 56.867188 269.714844 57.050781 269.460938 57.140625 269.160156 C 57.195312 268.964844 57.226562 268.59375 57.226562 268.042969 Z M 57.226562 267.585938 "/>
<path style=" stroke:none;fill-rule:nonzero;fill:rgb(21.960784%,20%,20.784314%);fill-opacity:1;" d="M 61.808594 271.75 L 61.808594 259.789062 L 64.109375 259.789062 L 64.109375 271.75 Z M 61.808594 271.75 "/>
<path style=" stroke:none;fill-rule:nonzero;fill:rgb(21.960784%,20%,20.784314%);fill-opacity:1;" d="M 71.210938 271.75 L 71.210938 259.789062 L 75.089844 259.789062 C 76.5625 259.789062 77.523438 259.851562 77.964844 259.972656 C 78.65625 260.15625 79.230469 260.546875 79.6875 261.148438 C 80.152344 261.742188 80.386719 262.519531 80.386719 263.476562 C 80.386719 264.210938 80.25 264.824219 79.980469 265.324219 C 79.71875 265.824219 79.382812 266.21875 78.96875 266.507812 C 78.554688 266.792969 78.136719 266.976562 77.714844 267.0625 C 77.132812 267.179688 76.296875 267.238281 75.207031 267.238281 L 73.628906 267.238281 L 73.628906 271.75 Z M 73.628906 261.8125 L 73.628906 265.203125 L 74.945312 265.203125 C 75.90625 265.203125 76.542969 265.144531 76.863281 265.019531 C 77.183594 264.898438 77.433594 264.703125 77.617188 264.433594 C 77.796875 264.164062 77.890625 263.855469 77.890625 263.507812 C 77.890625 263.074219 77.761719 262.714844 77.507812 262.429688 C 77.253906 262.148438 76.929688 261.972656 76.539062 261.898438 C 76.246094 261.839844 75.667969 261.8125 74.792969 261.8125 Z M 73.628906 261.8125 "/>
<path style=" stroke:none;fill-rule:nonzero;fill:rgb(21.960784%,20%,20.784314%);fill-opacity:1;" d="M 82.4375 261.910156 L 82.4375 259.789062 L 84.738281 259.789062 L 84.738281 261.910156 Z M 82.4375 271.75 L 82.4375 263.082031 L 84.738281 263.082031 L 84.738281 271.75 Z M 82.4375 271.75 "/>
<path style=" stroke:none;fill-rule:nonzero;fill:rgb(21.960784%,20%,20.784314%);fill-opacity:1;" d="M 95.027344 271.75 L 92.730469 271.75 L 92.730469 267.324219 C 92.730469 266.390625 92.675781 265.789062 92.574219 265.519531 C 92.480469 265.246094 92.320312 265.03125 92.097656 264.878906 C 91.878906 264.726562 91.617188 264.648438 91.3125 264.648438 C 90.910156 264.648438 90.550781 264.757812 90.234375 264.976562 C 89.917969 265.191406 89.703125 265.484375 89.589844 265.84375 C 89.472656 266.203125 89.414062 266.863281 89.414062 267.824219 L 89.414062 271.75 L 87.117188 271.75 L 87.117188 263.082031 L 89.253906 263.082031 L 89.253906 264.355469 C 90.007812 263.378906 90.957031 262.886719 92.109375 262.886719 C 92.613281 262.886719 93.078125 262.984375 93.492188 263.171875 C 93.910156 263.351562 94.234375 263.585938 94.449219 263.867188 C 94.667969 264.148438 94.816406 264.472656 94.898438 264.835938 C 94.984375 265.191406 95.027344 265.703125 95.027344 266.367188 Z M 95.027344 271.75 "/>
<path style=" stroke:none;fill-rule:nonzero;fill:rgb(21.960784%,20%,20.784314%);fill-opacity:1;" d="M 97.226562 272.324219 L 99.851562 272.640625 C 99.894531 272.945312 99.992188 273.15625 100.148438 273.273438 C 100.363281 273.429688 100.707031 273.511719 101.183594 273.511719 C 101.777344 273.511719 102.226562 273.417969 102.535156 273.238281 C 102.730469 273.121094 102.882812 272.929688 102.992188 272.664062 C 103.054688 272.472656 103.089844 272.121094 103.089844 271.609375 L 103.089844 270.347656 C 102.40625 271.28125 101.542969 271.75 100.496094 271.75 C 99.324219 271.75 98.402344 271.257812 97.726562 270.269531 C 97.1875 269.496094 96.921875 268.527344 96.921875 267.367188 C 96.921875 265.917969 97.269531 264.808594 97.96875 264.039062 C 98.671875 263.273438 99.542969 262.886719 100.582031 262.886719 C 101.65625 262.886719 102.542969 263.359375 103.242188 264.300781 L 103.242188 263.082031 L 105.386719 263.082031 L 105.386719 270.859375 C 105.386719 271.878906 105.304688 272.644531 105.136719 273.152344 C 104.96875 273.65625 104.734375 274.054688 104.429688 274.335938 C 104.125 274.625 103.714844 274.851562 103.199219 275.011719 C 102.6875 275.175781 102.046875 275.261719 101.269531 275.261719 C 99.800781 275.261719 98.757812 275.011719 98.140625 274.511719 C 97.523438 274.011719 97.214844 273.371094 97.214844 272.597656 C 97.214844 272.523438 97.21875 272.433594 97.226562 272.324219 Z M 99.273438 267.238281 C 99.273438 268.160156 99.453125 268.832031 99.808594 269.257812 C 100.164062 269.6875 100.605469 269.902344 101.128906 269.902344 C 101.695312 269.902344 102.167969 269.683594 102.554688 269.25 C 102.9375 268.808594 103.132812 268.15625 103.132812 267.292969 C 103.132812 266.398438 102.949219 265.738281 102.578125 265.300781 C 102.207031 264.867188 101.738281 264.648438 101.171875 264.648438 C 100.617188 264.648438 100.164062 264.863281 99.808594 265.292969 C 99.453125 265.710938 99.273438 266.363281 99.273438 267.238281 Z M 99.273438 267.238281 "/>
<path style=" stroke:none;fill-rule:nonzero;fill:rgb(21.960784%,20%,20.784314%);fill-opacity:1;" d="M 111.726562 263.082031 L 111.726562 264.910156 L 110.160156 264.910156 L 110.160156 268.402344 C 110.160156 269.113281 110.171875 269.527344 110.203125 269.640625 C 110.230469 269.757812 110.292969 269.855469 110.398438 269.933594 C 110.507812 270.007812 110.636719 270.042969 110.789062 270.042969 C 111 270.042969 111.308594 269.972656 111.714844 269.824219 L 111.914062 271.597656 C 111.375 271.828125 110.769531 271.945312 110.09375 271.945312 C 109.679688 271.945312 109.304688 271.875 108.96875 271.738281 C 108.644531 271.601562 108.398438 271.421875 108.242188 271.207031 C 108.085938 270.984375 107.980469 270.679688 107.925781 270.304688 C 107.871094 270.035156 107.847656 269.5 107.847656 268.695312 L 107.847656 264.910156 L 106.789062 264.910156 L 106.789062 263.082031 L 107.847656 263.082031 L 107.847656 261.367188 L 110.160156 260.027344 L 110.160156 263.082031 Z M 111.726562 263.082031 "/>
<path style=" stroke:none;fill-rule:nonzero;fill:rgb(21.960784%,20%,20.784314%);fill-opacity:1;" d="M 119.078125 271.75 L 119.078125 270.457031 C 118.753906 270.914062 118.339844 271.277344 117.824219 271.542969 C 117.304688 271.808594 116.765625 271.945312 116.199219 271.945312 C 115.613281 271.945312 115.082031 271.816406 114.621094 271.566406 C 114.164062 271.304688 113.828125 270.945312 113.617188 270.488281 C 113.414062 270.027344 113.3125 269.382812 113.3125 268.5625 L 113.3125 263.082031 L 115.613281 263.082031 L 115.613281 267.0625 C 115.613281 268.28125 115.648438 269.027344 115.730469 269.304688 C 115.820312 269.582031 115.972656 269.796875 116.1875 269.957031 C 116.414062 270.117188 116.703125 270.195312 117.050781 270.195312 C 117.441406 270.195312 117.792969 270.089844 118.097656 269.878906 C 118.40625 269.660156 118.621094 269.394531 118.738281 269.074219 C 118.855469 268.757812 118.914062 267.976562 118.914062 266.738281 L 118.914062 263.082031 L 121.203125 263.082031 L 121.203125 271.75 Z M 119.078125 271.75 "/>
<path style=" stroke:none;fill-rule:nonzero;fill:rgb(21.960784%,20%,20.784314%);fill-opacity:1;" d="M 131.5625 271.75 L 129.261719 271.75 L 129.261719 267.324219 C 129.261719 266.390625 129.210938 265.789062 129.109375 265.519531 C 129.015625 265.246094 128.855469 265.03125 128.632812 264.878906 C 128.414062 264.726562 128.152344 264.648438 127.847656 264.648438 C 127.445312 264.648438 127.085938 264.757812 126.769531 264.976562 C 126.453125 265.191406 126.238281 265.484375 126.125 265.84375 C 126.007812 266.203125 125.949219 266.863281 125.949219 267.824219 L 125.949219 271.75 L 123.652344 271.75 L 123.652344 263.082031 L 125.785156 263.082031 L 125.785156 264.355469 C 126.542969 263.378906 127.492188 262.886719 128.640625 262.886719 C 129.148438 262.886719 129.613281 262.984375 130.027344 263.171875 C 130.445312 263.351562 130.765625 263.585938 130.984375 263.867188 C 131.203125 264.148438 131.351562 264.472656 131.433594 264.835938 C 131.519531 265.191406 131.5625 265.703125 131.5625 266.367188 Z M 131.5625 271.75 "/>
<path style=" stroke:none;fill-rule:nonzero;fill:rgb(21.960784%,20%,20.784314%);fill-opacity:1;" d="M 133.761719 272.324219 L 136.386719 272.640625 C 136.429688 272.945312 136.527344 273.15625 136.679688 273.273438 C 136.898438 273.429688 137.242188 273.511719 137.714844 273.511719 C 138.3125 273.511719 138.761719 273.417969 139.066406 273.238281 C 139.265625 273.121094 139.417969 272.929688 139.527344 272.664062 C 139.589844 272.472656 139.625 272.121094 139.625 271.609375 L 139.625 270.347656 C 138.941406 271.28125 138.078125 271.75 137.03125 271.75 C 135.859375 271.75 134.9375 271.257812 134.261719 270.269531 C 133.722656 269.496094 133.457031 268.527344 133.457031 267.367188 C 133.457031 265.917969 133.804688 264.808594 134.5 264.039062 C 135.203125 263.273438 136.078125 262.886719 137.117188 262.886719 C 138.191406 262.886719 139.078125 263.359375 139.777344 264.300781 L 139.777344 263.082031 L 141.921875 263.082031 L 141.921875 270.859375 C 141.921875 271.878906 141.839844 272.644531 141.671875 273.152344 C 141.503906 273.65625 141.269531 274.054688 140.964844 274.335938 C 140.660156 274.625 140.246094 274.851562 139.734375 275.011719 C 139.222656 275.175781 138.582031 275.261719 137.804688 275.261719 C 136.335938 275.261719 135.292969 275.011719 134.675781 274.511719 C 134.058594 274.011719 133.75 273.371094 133.75 272.597656 C 133.75 272.523438 133.753906 272.433594 133.761719 272.324219 Z M 135.808594 267.238281 C 135.808594 268.160156 135.988281 268.832031 136.34375 269.257812 C 136.699219 269.6875 137.140625 269.902344 137.664062 269.902344 C 138.230469 269.902344 138.703125 269.683594 139.089844 269.25 C 139.472656 268.808594 139.667969 268.15625 139.667969 267.292969 C 139.667969 266.398438 139.480469 265.738281 139.113281 265.300781 C 138.742188 264.867188 138.273438 264.648438 137.707031 264.648438 C 137.152344 264.648438 136.699219 264.863281 136.34375 265.292969 C 135.988281 265.710938 135.808594 266.363281 135.808594 267.238281 Z M 135.808594 267.238281 "/>
<path style=" stroke:none;fill-rule:nonzero;fill:rgb(21.960784%,20%,20.784314%);fill-opacity:1;" d="M 148.964844 259.789062 L 151.382812 259.789062 L 151.382812 266.269531 C 151.382812 267.300781 151.414062 267.964844 151.480469 268.269531 C 151.582031 268.757812 151.824219 269.148438 152.210938 269.445312 C 152.601562 269.742188 153.136719 269.890625 153.8125 269.890625 C 154.5 269.890625 155.023438 269.753906 155.371094 269.476562 C 155.71875 269.195312 155.925781 268.851562 155.992188 268.445312 C 156.0625 268.03125 156.101562 267.355469 156.101562 266.410156 L 156.101562 259.789062 L 158.519531 259.789062 L 158.519531 266.074219 C 158.519531 267.507812 158.453125 268.527344 158.324219 269.117188 C 158.195312 269.707031 157.949219 270.207031 157.59375 270.617188 C 157.246094 271.027344 156.777344 271.351562 156.1875 271.597656 C 155.601562 271.835938 154.832031 271.957031 153.890625 271.957031 C 152.738281 271.957031 151.871094 271.824219 151.285156 271.566406 C 150.695312 271.296875 150.226562 270.953125 149.878906 270.53125 C 149.535156 270.113281 149.3125 269.671875 149.203125 269.207031 C 149.042969 268.515625 148.964844 267.507812 148.964844 266.171875 Z M 148.964844 259.789062 "/>
<path style=" stroke:none;fill-rule:nonzero;fill:rgb(21.960784%,20%,20.784314%);fill-opacity:1;" d="M 169.042969 271.75 L 166.742188 271.75 L 166.742188 267.324219 C 166.742188 266.390625 166.691406 265.789062 166.589844 265.519531 C 166.496094 265.246094 166.335938 265.03125 166.109375 264.878906 C 165.894531 264.726562 165.632812 264.648438 165.324219 264.648438 C 164.925781 264.648438 164.566406 264.757812 164.246094 264.976562 C 163.933594 265.191406 163.71875 265.484375 163.605469 265.84375 C 163.488281 266.203125 163.429688 266.863281 163.429688 267.824219 L 163.429688 271.75 L 161.128906 271.75 L 161.128906 263.082031 L 163.265625 263.082031 L 163.265625 264.355469 C 164.019531 263.378906 164.972656 262.886719 166.121094 262.886719 C 166.628906 262.886719 167.089844 262.984375 167.503906 263.171875 C 167.925781 263.351562 168.246094 263.585938 168.464844 263.867188 C 168.683594 264.148438 168.828125 264.472656 168.910156 264.835938 C 169 265.191406 169.042969 265.703125 169.042969 266.367188 Z M 169.042969 271.75 "/>
<path style=" stroke:none;fill-rule:nonzero;fill:rgb(21.960784%,20%,20.784314%);fill-opacity:1;" d="M 171.445312 261.910156 L 171.445312 259.789062 L 173.746094 259.789062 L 173.746094 261.910156 Z M 171.445312 271.75 L 171.445312 263.082031 L 173.746094 263.082031 L 173.746094 271.75 Z M 171.445312 271.75 "/>
<path style=" stroke:none;fill-rule:nonzero;fill:rgb(21.960784%,20%,20.784314%);fill-opacity:1;" d="M 178.523438 271.75 L 175.023438 263.082031 L 177.445312 263.082031 L 179.078125 267.507812 L 179.546875 268.988281 C 179.671875 268.613281 179.75 268.363281 179.789062 268.238281 C 179.859375 268 179.941406 267.757812 180.027344 267.507812 L 181.683594 263.082031 L 184.046875 263.082031 L 180.59375 271.75 Z M 178.523438 271.75 "/>
<path style=" stroke:none;fill-rule:nonzero;fill:rgb(21.960784%,20%,20.784314%);fill-opacity:1;" d="M 190.550781 268.988281 L 192.839844 269.378906 C 192.539062 270.214844 192.070312 270.851562 191.433594 271.292969 C 190.800781 271.726562 190.007812 271.945312 189.054688 271.945312 C 187.542969 271.945312 186.429688 271.453125 185.710938 270.464844 C 185.136719 269.679688 184.851562 268.683594 184.851562 267.488281 C 184.851562 266.050781 185.222656 264.929688 185.972656 264.117188 C 186.726562 263.296875 187.679688 262.886719 188.828125 262.886719 C 190.117188 262.886719 191.136719 263.316406 191.878906 264.171875 C 192.625 265.019531 192.984375 266.320312 192.957031 268.074219 L 187.203125 268.074219 C 187.21875 268.757812 187.402344 269.285156 187.757812 269.660156 C 188.113281 270.039062 188.554688 270.226562 189.078125 270.226562 C 189.441406 270.226562 189.742188 270.128906 189.984375 269.933594 C 190.226562 269.738281 190.417969 269.421875 190.550781 268.988281 Z M 190.679688 266.671875 C 190.660156 266.015625 190.484375 265.515625 190.15625 265.171875 C 189.832031 264.824219 189.433594 264.648438 188.96875 264.648438 C 188.46875 264.648438 188.054688 264.832031 187.726562 265.191406 C 187.398438 265.558594 187.238281 266.050781 187.246094 266.671875 Z M 190.679688 266.671875 "/>
<path style=" stroke:none;fill-rule:nonzero;fill:rgb(21.960784%,20%,20.784314%);fill-opacity:1;" d="M 197.09375 271.75 L 194.792969 271.75 L 194.792969 263.082031 L 196.929688 263.082031 L 196.929688 264.324219 C 197.292969 263.734375 197.621094 263.351562 197.910156 263.171875 C 198.207031 262.984375 198.542969 262.886719 198.914062 262.886719 C 199.4375 262.886719 199.9375 263.035156 200.417969 263.324219 L 199.710938 265.324219 C 199.324219 265.070312 198.964844 264.941406 198.628906 264.941406 C 198.308594 264.941406 198.035156 265.035156 197.8125 265.214844 C 197.585938 265.390625 197.410156 265.710938 197.28125 266.171875 C 197.152344 266.636719 197.09375 267.605469 197.09375 269.074219 Z M 197.09375 271.75 "/>
<path style=" stroke:none;fill-rule:nonzero;fill:rgb(21.960784%,20%,20.784314%);fill-opacity:1;" d="M 200.648438 269.28125 L 202.957031 268.921875 C 203.050781 269.375 203.246094 269.714844 203.546875 269.945312 C 203.851562 270.179688 204.269531 270.292969 204.8125 270.292969 C 205.40625 270.292969 205.851562 270.183594 206.152344 269.964844 C 206.351562 269.8125 206.457031 269.609375 206.457031 269.347656 C 206.457031 269.171875 206.402344 269.03125 206.292969 268.921875 C 206.175781 268.8125 205.917969 268.714844 205.519531 268.617188 C 203.667969 268.214844 202.492188 267.839844 202 267.5 C 201.308594 267.035156 200.964844 266.386719 200.964844 265.550781 C 200.964844 264.800781 201.261719 264.167969 201.859375 263.660156 C 202.453125 263.144531 203.375 262.886719 204.625 262.886719 C 205.808594 262.886719 206.6875 263.082031 207.261719 263.476562 C 207.84375 263.863281 208.242188 264.429688 208.460938 265.183594 L 206.292969 265.585938 C 206.207031 265.246094 206.03125 264.988281 205.769531 264.8125 C 205.507812 264.632812 205.136719 264.539062 204.660156 264.539062 C 204.054688 264.539062 203.621094 264.625 203.363281 264.789062 C 203.1875 264.914062 203.101562 265.070312 203.101562 265.257812 C 203.101562 265.417969 203.175781 265.558594 203.328125 265.671875 C 203.539062 265.824219 204.253906 266.042969 205.476562 266.324219 C 206.695312 266.601562 207.550781 266.9375 208.035156 267.335938 C 208.515625 267.742188 208.757812 268.3125 208.757812 269.042969 C 208.757812 269.832031 208.421875 270.515625 207.753906 271.085938 C 207.089844 271.660156 206.109375 271.945312 204.8125 271.945312 C 203.625 271.945312 202.6875 271.707031 202 271.226562 C 201.308594 270.75 200.859375 270.101562 200.648438 269.28125 Z M 200.648438 269.28125 "/>
<path style=" stroke:none;fill-rule:nonzero;fill:rgb(21.960784%,20%,20.784314%);fill-opacity:1;" d="M 210.832031 261.910156 L 210.832031 259.789062 L 213.132812 259.789062 L 213.132812 261.910156 Z M 210.832031 271.75 L 210.832031 263.082031 L 213.132812 263.082031 L 213.132812 271.75 Z M 210.832031 271.75 "/>
<path style=" stroke:none;fill-rule:nonzero;fill:rgb(21.960784%,20%,20.784314%);fill-opacity:1;" d="M 219.511719 263.082031 L 219.511719 264.910156 L 217.941406 264.910156 L 217.941406 268.402344 C 217.941406 269.113281 217.953125 269.527344 217.984375 269.640625 C 218.011719 269.757812 218.078125 269.855469 218.179688 269.933594 C 218.289062 270.007812 218.421875 270.042969 218.574219 270.042969 C 218.78125 270.042969 219.089844 269.972656 219.5 269.824219 L 219.695312 271.597656 C 219.15625 271.828125 218.550781 271.945312 217.875 271.945312 C 217.460938 271.945312 217.085938 271.875 216.753906 271.738281 C 216.425781 271.601562 216.179688 271.421875 216.023438 271.207031 C 215.871094 270.984375 215.765625 270.679688 215.707031 270.304688 C 215.65625 270.035156 215.628906 269.5 215.628906 268.695312 L 215.628906 264.910156 L 214.574219 264.910156 L 214.574219 263.082031 L 215.628906 263.082031 L 215.628906 261.367188 L 217.941406 260.027344 L 217.941406 263.082031 Z M 219.511719 263.082031 "/>
<path style=" stroke:none;fill-rule:nonzero;fill:rgb(21.960784%,20%,20.784314%);fill-opacity:1;" d="M 220.058594 263.082031 L 222.5 263.082031 L 224.570312 269.238281 L 226.597656 263.082031 L 228.984375 263.082031 L 225.910156 271.421875 L 225.367188 272.933594 C 225.164062 273.441406 224.96875 273.824219 224.789062 274.085938 C 224.605469 274.351562 224.398438 274.570312 224.15625 274.738281 C 223.921875 274.90625 223.632812 275.03125 223.285156 275.121094 C 222.941406 275.210938 222.554688 275.261719 222.121094 275.261719 C 221.675781 275.261719 221.238281 275.21875 220.8125 275.128906 L 220.617188 273.335938 C 220.96875 273.402344 221.292969 273.433594 221.585938 273.433594 C 222.113281 273.433594 222.507812 273.277344 222.761719 272.96875 C 223.023438 272.65625 223.222656 272.253906 223.363281 271.769531 Z M 220.058594 263.082031 "/>
<path style=" stroke:none;fill-rule:nonzero;fill:rgb(93.333333%,63.921569%,12.941176%);fill-opacity:1;" d="M 111.210938 50.898438 C 87.769531 50.898438 68.769531 69.859375 68.769531 93.242188 C 68.769531 96.085938 69.054688 98.863281 69.589844 101.546875 L 80.371094 73.25 L 92.824219 67.890625 L 130.8125 97.101562 L 139.9375 100.5 L 147.210938 112.65625 L 148.929688 112.65625 C 151.941406 106.835938 153.652344 100.242188 153.652344 93.242188 C 153.652344 69.859375 134.652344 50.898438 111.210938 50.898438 "/>
<path style=" stroke:none;fill-rule:nonzero;fill:rgb(93.333333%,63.921569%,12.941176%);fill-opacity:1;" d="M 25.46875 93.242188 C 25.46875 46 63.855469 7.699219 111.210938 7.699219 C 158.5625 7.699219 196.953125 46 196.953125 93.242188 C 196.953125 108.035156 193.1875 121.949219 186.570312 134.085938 L 191.964844 140.210938 C 200.039062 126.417969 204.671875 110.371094 204.671875 93.242188 C 204.671875 41.746094 162.828125 0 111.210938 0 C 59.59375 0 17.75 41.746094 17.75 93.242188 C 17.75 109.773438 22.066406 125.296875 29.628906 138.757812 L 34.703125 131.894531 C 28.796875 120.285156 25.46875 107.152344 25.46875 93.242188 "/>
<path style=" stroke:none;fill-rule:nonzero;fill:rgb(93.333333%,63.921569%,12.941176%);fill-opacity:1;" d="M 111.210938 14.8125 C 67.796875 14.8125 32.597656 49.929688 32.597656 93.242188 C 32.597656 104.707031 35.0625 115.589844 39.492188 125.40625 L 43.980469 119.332031 C 40.824219 111.242188 39.09375 102.445312 39.09375 93.242188 C 39.09375 53.507812 71.378906 21.292969 111.210938 21.292969 C 151.039062 21.292969 183.328125 53.507812 183.328125 93.242188 C 183.328125 103.878906 181.011719 113.976562 176.859375 123.0625 L 181.515625 128.351562 C 186.828125 117.789062 189.820312 105.867188 189.820312 93.242188 C 189.820312 49.929688 154.625 14.8125 111.210938 14.8125 "/>
<path style=" stroke:none;fill-rule:nonzero;fill:rgb(93.333333%,63.921569%,12.941176%);fill-opacity:1;" d="M 111.210938 28.0625 C 75.128906 28.0625 45.878906 57.246094 45.878906 93.242188 C 45.878906 100.035156 46.921875 106.585938 48.851562 112.738281 L 52.9375 107.210938 C 51.859375 102.726562 51.273438 98.054688 51.273438 93.242188 C 51.273438 60.21875 78.109375 33.445312 111.210938 33.445312 C 144.316406 33.445312 171.144531 60.21875 171.144531 93.242188 C 171.144531 100.105469 169.972656 106.691406 167.839844 112.828125 L 171.898438 117.429688 C 174.894531 109.953125 176.546875 101.789062 176.546875 93.242188 C 176.546875 57.246094 147.292969 28.0625 111.210938 28.0625 "/>
<path style=" stroke:none;fill-rule:nonzero;fill:rgb(93.333333%,63.921569%,12.941176%);fill-opacity:1;" d="M 111.210938 39.460938 C 81.4375 39.460938 57.300781 63.539062 57.300781 93.242188 C 57.300781 95.996094 57.511719 98.695312 57.910156 101.332031 L 62.875 103.691406 C 62.148438 100.320312 61.753906 96.828125 61.753906 93.242188 C 61.753906 65.996094 83.898438 43.902344 111.210938 43.902344 C 138.523438 43.902344 160.664062 65.996094 160.664062 93.242188 C 160.664062 100.136719 159.242188 106.695312 156.6875 112.65625 L 161.488281 112.65625 C 163.824219 106.632812 165.121094 100.089844 165.121094 93.242188 C 165.121094 63.539062 140.980469 39.460938 111.210938 39.460938 "/>
<path style=" stroke:none;fill-rule:nonzero;fill:rgb(20.784314%,49.019608%,63.137255%);fill-opacity:1;" d="M 60.082031 112.265625 L 65.472656 116.222656 L 45.269531 178.429688 L 36.683594 169.957031 Z M 84.847656 80.226562 L 90.4375 78.050781 L 79.875 178.648438 L 65.796875 174.585938 Z M 104.464844 97.300781 L 118.453125 171.59375 L 109.125 178.457031 L 99.394531 101.1875 Z M 128.046875 122.824219 L 151.648438 169.75 L 144.199219 178.6875 L 123.261719 130.09375 Z M 190.257812 177.480469 L 196.628906 169.957031 L 204.859375 169.957031 L 203.507812 168.1875 L 165.027344 117.882812 L 141.253906 117.882812 L 137.894531 105.496094 L 129.339844 102.679688 L 91.570312 73.421875 L 82.8125 77.105469 L 73.0625 115.660156 L 58.757812 108.003906 L 22.355469 168.136719 L 21.253906 169.957031 L 33.292969 169.957031 L 28.839844 178.648438 L 17.773438 178.648438 L 17.773438 186.582031 L 204.992188 186.582031 L 204.992188 178.648438 L 189.265625 178.648438 Z M 190.257812 177.480469 "/>
</g>
</svg>
